<?xml version="1.0" encoding="UTF-8" standalone="no"?>
<!-- Created with Inkscape (http://www.inkscape.org/) -->

<svg
   xmlns:dc="http://purl.org/dc/elements/1.1/"
   xmlns:cc="http://creativecommons.org/ns#"
   xmlns:rdf="http://www.w3.org/1999/02/22-rdf-syntax-ns#"
   xmlns:svg="http://www.w3.org/2000/svg"
   xmlns="http://www.w3.org/2000/svg"
   version="1.1"
   width="744.09448"
   height="1052.3622"
   id="svg2">
  <defs
     id="defs4" />
  <metadata
     id="metadata7">
    <rdf:RDF>
      <cc:Work
         rdf:about="">
        <dc:format>image/svg+xml</dc:format>
        <dc:type
           rdf:resource="http://purl.org/dc/dcmitype/StillImage" />
        <dc:title></dc:title>
      </cc:Work>
    </rdf:RDF>
  </metadata>
  <g
     id="layer1">
    <path
       d="m 458.28388,39.709521 -272.8437,1.6875 -10.15625,289.781249 48.21875,3.375 0.84375,402.78125 -3.3125,-1.12505 -101.6875,40.6875 8.28125,127.6875 3.5625,55.53125 61.59375,20.9375 -0.5625,4.28125 5.65625,2.25 95.1875,38.40633 0.0625,-0.4063 0.0625,0.031 0,0 -0.0312,0.25 105.34375,-13.5937 9.75,-98.93753 0,0 43.78115,15.21875 88.8126,31.1875 -0.031,-0.28125 88.625,-58.875 -19.4378,-180.18725 -88.125,-23.40625 c 0,0 6.3507,-291.84244 7.5312,-345.9375 l 33.9376,0.46875 15.25,-279.624999 z"
       id="path3984"
       style="fill:#000000;stroke:none" />
    <path
       d="m 453.71857,44.104718 -264.58609,1.636428 -9.84888,281.010984 65.85106,4.57595 2.33342,-103.18586 32.88008,-0.45457 0.81822,-37.33479 -63.27521,-0.81822 3.30315,-73.33619 63.2449,1.03034 -3.27284,73.12407 64.09341,0.81822 3.27285,-73.94229 67.39658,0 -3.30316,74.7605 -67.21475,-0.81821 -0.81822,36.78931 31.06183,0.18183 -1.81826,112.15589 65.09346,4.54564 14.78845,-300.739032 z m -208.58391,287.223362 0,0.0303 27.75866,1.90916 -27.75866,-1.93946 z m 31.91034,-30.03149 -1.18187,32.18309 60.24478,4.21227 0.93944,-36.39536 -60.00235,0 z"
       id="path3050"
       style="fill:#00ff00;stroke:none" />
    <path
       d="M 457.72138,44.309521 575.10635,75.320992 558.9167,347.63113 443.03173,345.49895 z"
       id="path3052"
       style="fill:#008000;stroke:none" />
    <path
       d="m 226.50615,337.35953 0.82234,401.12792 189.32044,62.41213 11.52002,-426.14546 z"
       id="path3054"
       style="fill:#00ff00;stroke:none" />
    <path
       d="m 431.59715,374.73428 94.81281,-20.28815 -9.27276,416.86954 -98.15384,31.49631 z"
       id="path3056"
       style="fill:#008000;stroke:none" />
    <path
       d="m 522.06296,700.89497 81.66755,21.20234 -82.85806,45.2603 z"
       id="path3058"
       style="fill:#008000;stroke:none" />
    <path
       d="M 522.30943,771.64331 542.16869,953.06861 625.69915,898.354 606.53706,725.58922 z"
       id="path3060"
       style="fill:#008000;stroke:none" />
    <path
       d="m 539.047,953.46842 -127.80043,-44.00221 9.04704,-103.28525 98.61883,-31.1236 z"
       id="path3062"
       style="fill:#008000;stroke:none" />
    <path
       d="m 532.38021,894.07083 6.66454,59.37755 -127.58365,-43.90831 4.42649,-50.63476 z"
       id="path3064"
       style="fill:#808000;stroke:none" />
    <path
       d="m 417.25511,808.01534 -20.15941,201.97836 -102.00045,13.043 28.49789,-211.28959 z"
       id="path3066"
       style="fill:#008000;stroke:none" />
    <path
       d="m 219.15684,779.37136 -24.24634,203.33601 96.73644,39.61833 28.23389,-211.46247 z"
       id="path3068"
       style="fill:#00ff00;stroke:none" />
    <path
       d="m 219.33362,776.89649 67.65208,-15.95288 130.72948,44.40893 -95.00592,3.74292 z"
       id="path3070"
       style="fill:#00ff00;stroke:none" />
    <path
       d="m 221.18265,739.4741 -96.28262,38.4959 86.17589,30.29122 4.34469,-32.74833 65.80177,-16.00415 z"
       id="path3072"
       style="fill:#00ff00;stroke:none" />
    <path
       d="m 123.84734,781.34858 10.39236,175.5536 57.05728,18.91783 18.88672,-164.23937 z"
       id="path3074"
       style="fill:#00ff00;stroke:none" />
    <path
       d="m 131.2109,905.73799 65.04545,26.95521 -4.95937,43.12681 -57.06116,-18.98335 z"
       id="path3076"
       style="fill:#808000;stroke:none" />
    <path
       d="m 202.69513,917.42345 98.06901,36.61745 -9.15302,68.5708 -96.74077,-39.9209 z"
       id="path3078"
       style="fill:#808000;stroke:none" />
  </g>
</svg>
