<svg xmlns="http://www.w3.org/2000/svg" width="34.856" height="34.848" viewBox="0 0 34.856 34.848"><path d="M17.427,10.727a8.935,8.935,0,1,0,8.935,8.935A8.921,8.921,0,0,0,17.427,10.727Zm0,14.743a5.809,5.809,0,1,1,5.809-5.809,5.819,5.819,0,0,1-5.809,5.809ZM28.811,10.362a2.084,2.084,0,1,1-2.084-2.084A2.079,2.079,0,0,1,28.811,10.362Zm5.918,2.115c-.132-2.792-.77-5.264-2.815-7.3S27.4,2.5,24.612,2.36c-2.877-.163-11.5-.163-14.378,0-2.784.132-5.257.77-7.3,2.807S.257,9.677.117,12.469c-.163,2.877-.163,11.5,0,14.378.132,2.792.77,5.264,2.815,7.3s4.51,2.675,7.3,2.815c2.877.163,11.5.163,14.378,0,2.792-.132,5.264-.77,7.3-2.815s2.675-4.51,2.815-7.3c.163-2.877.163-11.493,0-14.37ZM31.011,29.934A5.881,5.881,0,0,1,27.7,33.247c-2.294.91-7.737.7-10.272.7s-7.986.2-10.272-.7a5.881,5.881,0,0,1-3.313-3.313c-.91-2.294-.7-7.737-.7-10.272s-.2-7.986.7-10.272A5.881,5.881,0,0,1,7.155,6.077c2.294-.91,7.737-.7,10.272-.7s7.986-.2,10.272.7A5.881,5.881,0,0,1,31.011,9.39c.91,2.294.7,7.737.7,10.272S31.921,27.648,31.011,29.934Z" transform="translate(0.005 -2.238)"/></svg>