<svg xmlns="http://www.w3.org/2000/svg" width="32.503" height="40.473" viewBox="0 0 32.503 40.473"><defs><style>.a{fill:#292828;}</style></defs><path class="a" d="M14.522,24.253.712,10.443A2.427,2.427,0,0,1,.712,7L3.007,4.706a2.427,2.427,0,0,1,3.442,0l9.789,9.789,9.789-9.789a2.427,2.427,0,0,1,3.442,0l2.315,2.285a2.427,2.427,0,0,1,0,3.442l-13.81,13.81A2.43,2.43,0,0,1,14.522,24.253Zm3.452,19.5,13.81-13.81a2.427,2.427,0,0,0,0-3.442L29.489,24.2a2.427,2.427,0,0,0-3.442,0l-9.8,9.778L6.46,24.192a2.427,2.427,0,0,0-3.442,0l-2.3,2.295a2.427,2.427,0,0,0,0,3.442l13.81,13.81A2.43,2.43,0,0,0,17.974,43.749Z" transform="translate(0.004 -3.99)"/></svg>